<mxfile host="app.diagrams.net" agent="Mozilla/5.0 (Windows NT 10.0; Win64; x64) AppleWebKit/537.36 (KHTML, like Gecko) Chrome/129.0.0.0 Safari/537.36" version="24.7.17">
  <diagram name="第 1 页" id="F1mUen5MHKTHclBxrJJy">
    <mxGraphModel dx="698" dy="434" grid="1" gridSize="10" guides="1" tooltips="1" connect="1" arrows="1" fold="1" page="0" pageScale="1" pageWidth="827" pageHeight="1169" math="0" shadow="0">
      <root>
        <mxCell id="0" />
        <mxCell id="1" parent="0" />
        <mxCell id="k2CZiV_W7CKmK2dIWS3A-2" value="Reserved" style="rounded=0;whiteSpace=wrap;html=1;" vertex="1" parent="1">
          <mxGeometry x="160" y="200" width="140" height="20" as="geometry" />
        </mxCell>
        <mxCell id="k2CZiV_W7CKmK2dIWS3A-6" value="Interrupt" style="rounded=0;whiteSpace=wrap;html=1;" vertex="1" parent="1">
          <mxGeometry x="300" y="200" width="60" height="20" as="geometry" />
        </mxCell>
        <mxCell id="k2CZiV_W7CKmK2dIWS3A-7" value="Baud Rate" style="rounded=0;whiteSpace=wrap;html=1;" vertex="1" parent="1">
          <mxGeometry x="360" y="200" width="60" height="20" as="geometry" />
        </mxCell>
        <mxCell id="k2CZiV_W7CKmK2dIWS3A-8" value="Enable" style="rounded=0;whiteSpace=wrap;html=1;" vertex="1" parent="1">
          <mxGeometry x="420" y="200" width="60" height="20" as="geometry" />
        </mxCell>
        <mxCell id="k2CZiV_W7CKmK2dIWS3A-10" value="TX Data" style="rounded=0;whiteSpace=wrap;html=1;" vertex="1" parent="1">
          <mxGeometry x="270" y="240" width="210" height="20" as="geometry" />
        </mxCell>
        <mxCell id="k2CZiV_W7CKmK2dIWS3A-11" value="Send" style="rounded=0;whiteSpace=wrap;html=1;" vertex="1" parent="1">
          <mxGeometry x="420" y="280" width="60" height="20" as="geometry" />
        </mxCell>
        <mxCell id="k2CZiV_W7CKmK2dIWS3A-12" value="Clear Int" style="rounded=0;whiteSpace=wrap;html=1;" vertex="1" parent="1">
          <mxGeometry x="360" y="280" width="60" height="20" as="geometry" />
        </mxCell>
        <mxCell id="k2CZiV_W7CKmK2dIWS3A-13" value="Busy" style="rounded=0;whiteSpace=wrap;html=1;" vertex="1" parent="1">
          <mxGeometry x="420" y="320" width="60" height="20" as="geometry" />
        </mxCell>
        <mxCell id="k2CZiV_W7CKmK2dIWS3A-14" value="Reserved" style="rounded=0;whiteSpace=wrap;html=1;" vertex="1" parent="1">
          <mxGeometry x="160" y="240" width="110" height="20" as="geometry" />
        </mxCell>
        <mxCell id="k2CZiV_W7CKmK2dIWS3A-15" value="Reserved" style="rounded=0;whiteSpace=wrap;html=1;" vertex="1" parent="1">
          <mxGeometry x="160" y="280" width="200" height="20" as="geometry" />
        </mxCell>
        <mxCell id="k2CZiV_W7CKmK2dIWS3A-16" value="Reserved" style="rounded=0;whiteSpace=wrap;html=1;" vertex="1" parent="1">
          <mxGeometry x="160" y="320" width="260" height="20" as="geometry" />
        </mxCell>
        <mxCell id="k2CZiV_W7CKmK2dIWS3A-17" value="0" style="text;html=1;align=center;verticalAlign=middle;whiteSpace=wrap;rounded=0;" vertex="1" parent="1">
          <mxGeometry x="470" y="180" width="20" height="20" as="geometry" />
        </mxCell>
        <mxCell id="k2CZiV_W7CKmK2dIWS3A-19" value="1" style="text;html=1;align=center;verticalAlign=middle;whiteSpace=wrap;rounded=0;" vertex="1" parent="1">
          <mxGeometry x="410" y="180" width="20" height="20" as="geometry" />
        </mxCell>
        <mxCell id="k2CZiV_W7CKmK2dIWS3A-21" value="2" style="text;html=1;align=center;verticalAlign=middle;whiteSpace=wrap;rounded=0;" vertex="1" parent="1">
          <mxGeometry x="350" y="180" width="20" height="20" as="geometry" />
        </mxCell>
        <mxCell id="k2CZiV_W7CKmK2dIWS3A-22" value="3" style="text;html=1;align=center;verticalAlign=middle;whiteSpace=wrap;rounded=0;" vertex="1" parent="1">
          <mxGeometry x="290" y="180" width="20" height="20" as="geometry" />
        </mxCell>
        <mxCell id="k2CZiV_W7CKmK2dIWS3A-23" value="32" style="text;html=1;align=center;verticalAlign=middle;whiteSpace=wrap;rounded=0;" vertex="1" parent="1">
          <mxGeometry x="150" y="180" width="20" height="20" as="geometry" />
        </mxCell>
        <mxCell id="k2CZiV_W7CKmK2dIWS3A-24" value="0" style="text;html=1;align=center;verticalAlign=middle;whiteSpace=wrap;rounded=0;" vertex="1" parent="1">
          <mxGeometry x="470" y="220" width="20" height="20" as="geometry" />
        </mxCell>
        <mxCell id="k2CZiV_W7CKmK2dIWS3A-25" value="8" style="text;html=1;align=center;verticalAlign=middle;whiteSpace=wrap;rounded=0;" vertex="1" parent="1">
          <mxGeometry x="260" y="220" width="20" height="20" as="geometry" />
        </mxCell>
        <mxCell id="k2CZiV_W7CKmK2dIWS3A-26" value="32" style="text;html=1;align=center;verticalAlign=middle;whiteSpace=wrap;rounded=0;" vertex="1" parent="1">
          <mxGeometry x="150" y="220" width="20" height="20" as="geometry" />
        </mxCell>
        <mxCell id="k2CZiV_W7CKmK2dIWS3A-27" value="0" style="text;html=1;align=center;verticalAlign=middle;whiteSpace=wrap;rounded=0;" vertex="1" parent="1">
          <mxGeometry x="470" y="260" width="20" height="20" as="geometry" />
        </mxCell>
        <mxCell id="k2CZiV_W7CKmK2dIWS3A-28" value="1" style="text;html=1;align=center;verticalAlign=middle;whiteSpace=wrap;rounded=0;" vertex="1" parent="1">
          <mxGeometry x="410" y="260" width="20" height="20" as="geometry" />
        </mxCell>
        <mxCell id="k2CZiV_W7CKmK2dIWS3A-29" value="2" style="text;html=1;align=center;verticalAlign=middle;whiteSpace=wrap;rounded=0;" vertex="1" parent="1">
          <mxGeometry x="350" y="260" width="20" height="20" as="geometry" />
        </mxCell>
        <mxCell id="k2CZiV_W7CKmK2dIWS3A-30" value="32" style="text;html=1;align=center;verticalAlign=middle;whiteSpace=wrap;rounded=0;" vertex="1" parent="1">
          <mxGeometry x="150" y="260" width="20" height="20" as="geometry" />
        </mxCell>
        <mxCell id="k2CZiV_W7CKmK2dIWS3A-31" value="0" style="text;html=1;align=center;verticalAlign=middle;whiteSpace=wrap;rounded=0;" vertex="1" parent="1">
          <mxGeometry x="470" y="300" width="20" height="20" as="geometry" />
        </mxCell>
        <mxCell id="k2CZiV_W7CKmK2dIWS3A-32" value="1" style="text;html=1;align=center;verticalAlign=middle;whiteSpace=wrap;rounded=0;" vertex="1" parent="1">
          <mxGeometry x="410" y="300" width="20" height="20" as="geometry" />
        </mxCell>
        <mxCell id="k2CZiV_W7CKmK2dIWS3A-33" value="32" style="text;html=1;align=center;verticalAlign=middle;whiteSpace=wrap;rounded=0;" vertex="1" parent="1">
          <mxGeometry x="150" y="300" width="20" height="20" as="geometry" />
        </mxCell>
        <mxCell id="k2CZiV_W7CKmK2dIWS3A-34" value="Config Register(0x00)" style="text;html=1;align=right;verticalAlign=middle;whiteSpace=wrap;rounded=0;" vertex="1" parent="1">
          <mxGeometry y="200" width="150" height="20" as="geometry" />
        </mxCell>
        <mxCell id="k2CZiV_W7CKmK2dIWS3A-35" value="TX Data Register(0x04)" style="text;html=1;align=right;verticalAlign=middle;whiteSpace=wrap;rounded=0;" vertex="1" parent="1">
          <mxGeometry y="240" width="150" height="20" as="geometry" />
        </mxCell>
        <mxCell id="k2CZiV_W7CKmK2dIWS3A-36" value="Instruction Register(0x08)" style="text;html=1;align=right;verticalAlign=middle;whiteSpace=wrap;rounded=0;" vertex="1" parent="1">
          <mxGeometry y="280" width="150" height="20" as="geometry" />
        </mxCell>
        <mxCell id="k2CZiV_W7CKmK2dIWS3A-37" value="Status Register(0x0c)" style="text;html=1;align=right;verticalAlign=middle;whiteSpace=wrap;rounded=0;" vertex="1" parent="1">
          <mxGeometry y="320" width="150" height="20" as="geometry" />
        </mxCell>
        <mxCell id="k2CZiV_W7CKmK2dIWS3A-38" value="Base address: 0x4000_d000" style="text;html=1;align=center;verticalAlign=middle;whiteSpace=wrap;rounded=0;" vertex="1" parent="1">
          <mxGeometry y="160" width="160" height="30" as="geometry" />
        </mxCell>
      </root>
    </mxGraphModel>
  </diagram>
</mxfile>
